<?xml version="1.0" encoding="UTF-8"?>
<svg id="Layer_1" data-name="Layer 1" xmlns="http://www.w3.org/2000/svg" viewBox="0 0 288 288">
  <defs>
    <style>
      .cls-1 {
        fill: #f7910b;
      }

      .cls-1, .cls-2 {
        stroke-width: 0px;
      }

      .cls-2 {
        fill: #1f294e;
      }
    </style>
  </defs>
  <g>
    <g>
      <path class="cls-2" d="M56.54,123.21l-7.79-7.84c-2.22-2.24-5.3-3.52-8.45-3.52h-10.98c-3.15,0-6.23,1.28-8.45,3.52l-7.8,7.84c-2.24,2.26-3.48,5.26-3.48,8.45v11.13c0,3.19,1.24,6.19,3.48,8.45l7.8,7.84c2.22,2.24,5.3,3.52,8.45,3.52h10.98c3.15,0,6.23-1.28,8.45-3.52l5.84-5.87,1.96-1.97c2.24-2.26,3.48-5.26,3.48-8.45v-11.13c0-3.19-1.24-6.19-3.48-8.45ZM57.21,138.36c-.06.39-.12.79-.17,1.05-.08.38-.73,2.12-1.72,4.42-.04.11-.12.2-.21.26-.13.08-.28.13-.41.13-.06,0-.12,0-.18-.03-.32-.12-.44-.37-.43-.93v-.02s.57-4.57.57-4.57c.03-.14.11-.85-.13-1.28-.1-.17-.23-.27-.41-.31-.08-.02-.17-.03-.26-.03-.6,0-.94.48-1.01.65-.65,1.5-2.25,6.09-2.42,7.39-.09.68,0,1.32,0,1.35,0,0,.01.09.01.09h0s.61,2.33,1.41,4c.08.17.42,1.16.07,1.73-.02.03-.17.24-.2.29l-1.64,1.5c-.24.23-.5.39-.77.56l-.03.02s-.06.03-.09.05l-4.3,1.89c-.07.03-.15.05-.22.05-.04,0-.07,0-.11-.01-.23-.05-.41-.18-.49-.35-.14-.31-.05-.57.35-.97h.01s3.62-2.84,3.62-2.84c.12-.08.68-.53.81-1,.05-.19.03-.36-.07-.51-.29-.46-.73-.53-.97-.53-.14,0-.27.02-.37.06-1.52.6-5.88,2.71-6.92,3.51-.54.42-.93.93-.95.96l-.05.08c-.06.08-1.37,2.14-1.83,3.84h0s-.21.98-1.16.98l-2.54-.05s-.02,0-.03,0c-.04,0-.08,0-.13,0-.24,0-.58-.07-.85-.18l-4.43-1.73c-.11-.04-.2-.12-.26-.21-.13-.2-.16-.42-.1-.59.12-.32.37-.44.93-.44h.02l4.56.57c.06,0,.25.03.46.03.82,0,1.07-.31,1.13-.58.15-.69-.35-1.16-.61-1.27-1.5-.65-6.07-2.25-7.37-2.43-.2-.02-.41-.04-.63-.04-.4,0-.7.04-.71.04h-.09s0,.02,0,.02c-.02,0-2.28.6-3.98,1.41-.01,0-.04.02-.07.04-.13.08-.42.26-.84.26-.39,0-.79-.16-1.19-.47l-1.76-1.83c-.06-.06-.1-.11-.14-.15-.18-.21-.19-.22-.39-.56-.05-.08-.09-.18-.14-.27l-1.85-4.22c-.05-.11-.06-.23-.04-.33.05-.23.18-.42.35-.49.09-.04.18-.06.26-.06.2,0,.42.13.7.41h.01s2.82,3.65,2.82,3.65h0c.09.13.63.83,1.18.83.12,0,.22-.03.32-.09.6-.38.57-1.07.46-1.34-.6-1.52-2.7-5.9-3.5-6.94-.42-.54-.93-.93-.96-.95,0,0-.08-.05-.08-.05h0s-1.95-1.16-3.81-1.83c-.84-.45-1.04-.75-1.04-1.54l.04-2.54v-.1c.04-.46.04-.47.17-.93l1.73-4.43c.04-.11.12-.2.21-.26.13-.08.28-.13.41-.13.07,0,.13,0,.18.03.32.12.44.37.44.93v.02s-.57,4.57-.57,4.57c-.03.13-.11.87.14,1.29.1.16.23.27.4.3.09.02.17.03.26.03.6,0,.94-.48,1.01-.65.65-1.5,2.25-6.09,2.42-7.38.09-.68,0-1.32,0-1.35,0-.01-.01-.1-.01-.1h0s-.68-2.42-1.41-4c-.52-1.17-.1-1.55.23-1.85l.02-.02,1.83-1.78c.14-.15.28-.24.46-.35l.09-.06c.24-.15.49-.28.73-.39l3.9-1.72c.07-.03.15-.05.23-.05.04,0,.07,0,.11.01.23.05.41.19.49.35.14.31.05.57-.35.97h-.01s-3.63,2.84-3.63,2.84c-.1.08-.69.53-.81,1.01-.05.18-.02.35.07.5.29.46.73.52.96.52.14,0,.27-.02.37-.06,1.52-.6,5.88-2.71,6.92-3.51.54-.42.93-.93.95-.96,0-.02.03-.04.05-.07h0s0-.03,0-.03c.01-.03,1.14-2.68,1.8-3.78.28-.47,1.21-.88,1.76-.88,1.14,0,2.06.06,2.47.12.27.04.52.09.52.09,0,0,.26.05.52.12.32.08,1.93.72,4.34,1.89.11.05.2.12.25.22.12.21.15.43.08.6-.13.29-.35.4-.81.4-.05,0-.09,0-.13,0h-.02l-4.53-.74c-.08-.02-.31-.05-.57-.05-.74,0-.97.29-1.04.54-.18.69.3,1.17.57,1.29,1.47.71,5.98,2.48,7.27,2.7.26.04.55.07.85.07s.48-.02.5-.02h.03s.03,0,.06-.01c.1-.02,2.52-.48,4.05-1.27.14-.07.44-.12.75-.12.39,0,.75.07.92.18.48.31.87.78,1.27,1.27.15.18.3.37.47.55.19.22.48.61.61.86.76,1.37,1.39,2.82,1.89,4.33h0s0,.01,0,.01c.05.11.06.23.04.33-.05.23-.18.42-.35.49-.09.04-.18.06-.26.06-.21,0-.42-.13-.7-.41h-.01s-2.82-3.65-2.82-3.65c-.09-.13-.64-.83-1.18-.83-.12,0-.22.03-.32.09-.6.38-.57,1.06-.46,1.34.6,1.52,2.7,5.89,3.5,6.94.42.54.93.93.96.95l.07.05h0s2.11,1.28,3.82,1.83c.4.13.83.59.83,1.11l-.04,2.54Z"/>
      <path class="cls-2" d="M34.8,122.08c-8.34,0-15.1,6.78-15.1,15.14s6.76,15.14,15.1,15.14,15.1-6.78,15.1-15.14-6.76-15.14-15.1-15.14ZM34.8,145.71c-4.67,0-8.46-3.8-8.46-8.49s3.79-8.49,8.46-8.49,8.46,3.8,8.46,8.49-3.79,8.49-8.46,8.49Z"/>
    </g>
    <circle class="cls-1" cx="34.8" cy="137.2" r="8.46"/>
  </g>
  <g>
    <path class="cls-2" d="M72.52,153.93v-34.36h9.5v3.81c1.58-1.37,3.42-2.46,5.53-3.25,2.1-.79,4.36-1.19,6.78-1.19,2.08,0,3.98.33,5.68,1,1.71.67,3.16,1.62,4.37,2.87,1.21,1.25,2.14,2.76,2.81,4.53.67,1.77,1,3.74,1,5.9v20.68h-9.5v-18.68c0-2.37-.71-4.26-2.12-5.65-1.42-1.39-3.29-2.09-5.62-2.09-1.17,0-2.29.24-3.37.72-1.08.48-2.03,1.13-2.84,1.97-.81.83-1.47,1.81-1.97,2.94-.5,1.12-.75,2.31-.75,3.56v17.24h-9.5Z"/>
    <path class="cls-2" d="M126.31,119.58l7.5,16.12,7.31-16.12h10.62l-18.12,34.36-18.24-34.36h10.93Z"/>
    <path class="cls-2" d="M192.52,136.69c0,2.5-.48,4.83-1.44,7-.96,2.17-2.27,4.05-3.94,5.65-1.67,1.6-3.61,2.87-5.84,3.81-2.23.94-4.61,1.41-7.15,1.41s-4.93-.47-7.15-1.41c-2.23-.94-4.18-2.21-5.84-3.81-1.67-1.6-2.98-3.49-3.94-5.65-.96-2.17-1.44-4.5-1.44-7s.48-4.76,1.44-6.9c.96-2.14,2.27-4.02,3.94-5.62,1.67-1.6,3.61-2.87,5.84-3.81,2.23-.94,4.61-1.41,7.15-1.41s4.92.47,7.15,1.41c2.23.94,4.17,2.21,5.84,3.81,1.67,1.6,2.98,3.48,3.94,5.62.96,2.15,1.44,4.45,1.44,6.9ZM182.84,136.69c0-1.25-.23-2.45-.69-3.59-.46-1.14-1.08-2.13-1.87-2.97-.79-.83-1.72-1.5-2.78-2-1.06-.5-2.18-.75-3.34-.75s-2.28.25-3.34.75c-1.06.5-1.99,1.17-2.78,2-.79.83-1.42,1.82-1.87,2.97-.46,1.15-.69,2.34-.69,3.59s.23,2.51.69,3.65c.46,1.15,1.08,2.15,1.87,3,.79.85,1.72,1.53,2.78,2.03,1.06.5,2.18.75,3.34.75s2.33-.25,3.37-.75c1.04-.5,1.96-1.18,2.75-2.03.79-.85,1.42-1.85,1.87-3,.46-1.15.69-2.36.69-3.65Z"/>
    <path class="cls-2" d="M204.39,170.17l5.75-16.3-13.56-34.29h10.68l8.5,21.43,8-21.43h10.49l-19.8,50.6h-10.06Z"/>
    <path class="cls-2" d="M249.49,139.94c.58,1.83,1.61,3.27,3.09,4.31,1.48,1.04,3.24,1.56,5.28,1.56,1.67,0,3.28-.34,4.84-1.03,1.56-.69,2.76-1.63,3.59-2.84l5.31,6.87c-1.75,1.79-3.85,3.2-6.31,4.22-2.46,1.02-5.06,1.53-7.81,1.53-2.54,0-4.92-.46-7.15-1.37-2.23-.92-4.18-2.19-5.84-3.81-1.67-1.62-2.97-3.52-3.9-5.68-.94-2.17-1.41-4.5-1.41-7s.45-4.76,1.34-6.9c.9-2.14,2.12-4.02,3.69-5.62,1.56-1.6,3.39-2.87,5.5-3.81,2.1-.94,4.34-1.41,6.72-1.41,2.25,0,4.35.39,6.31,1.16,1.96.77,3.69,1.86,5.18,3.28,1.5,1.42,2.74,3.09,3.72,5.03.98,1.94,1.61,4.07,1.91,6.4.08.79.11,1.67.09,2.62-.02.96-.03,1.79-.03,2.5h-24.11ZM256.99,127.38c-1.71,0-3.19.39-4.44,1.16-1.25.77-2.19,1.86-2.81,3.28h13.99c-.62-1.37-1.51-2.46-2.65-3.25-1.15-.79-2.51-1.19-4.09-1.19Z"/>
  </g>
</svg>